<?xml version="1.0" encoding="UTF-8" standalone="no"?>
<svg
   xmlns:dc="http://purl.org/dc/elements/1.1/"
   xmlns:cc="http://creativecommons.org/ns#"
   xmlns:rdf="http://www.w3.org/1999/02/22-rdf-syntax-ns#"
   xmlns:svg="http://www.w3.org/2000/svg"
   xmlns="http://www.w3.org/2000/svg"
   id="svg16"
   xml:space="preserve"
   viewBox="0 0 151 87"
   height="87"
   width="151"
   version="1.1"><metadata
     id="metadata20"><rdf:RDF><cc:Work
         rdf:about=""><dc:format>image/svg+xml</dc:format><dc:type
           rdf:resource="http://purl.org/dc/dcmitype/StillImage" /></cc:Work></rdf:RDF></metadata><desc
     id="desc2">Created with Fabric.js 2.4.6</desc><defs
     id="defs4" /><g
     id="g14"
     transform="translate(76.15,42.55)"><g
       id="text12"
       style="font-style:normal;font-weight:700;font-size:30px;font-family:Ubuntu;white-space:pre;opacity:1;fill:#000000;fill-rule:nonzero;stroke:none;stroke-width:1;stroke-linecap:butt;stroke-linejoin:miter;stroke-miterlimit:4;stroke-dasharray:none;stroke-dashoffset:0"
       aria-label="pcconsultingasia"><path
         id="path22"
         style=""
         d="m -62.440002,-32.25 q 0,-2.07 -0.93,-3.3 -0.93,-1.26 -2.76,-1.26 -0.6,0 -1.11,0.06 -0.51,0.03 -0.84,0.09 v 8.07 q 0.42,0.27 1.08,0.45 0.69,0.18 1.38,0.18 3.18,0 3.18,-4.29 z m 4.56,-0.12 q 0,1.83 -0.45,3.33 -0.45,1.5 -1.32,2.58 -0.87,1.08 -2.16,1.68 -1.29,0.6 -2.97,0.6 -0.93,0 -1.74,-0.18 -0.81,-0.18 -1.56,-0.51 v 5.94 h -4.47 v -20.79 q 0.6,-0.18 1.38,-0.33 0.78,-0.18 1.62,-0.3 0.87,-0.12 1.74,-0.18 0.9,-0.09 1.71,-0.09 1.95,0 3.48,0.6 1.53,0.57 2.58,1.65 1.05,1.05 1.59,2.58 0.57,1.53 0.57,3.42 z" /><path
         id="path24"
         style=""
         d="m -55.194533,-32.37 q 0,-1.71 0.54,-3.21 0.57,-1.53 1.62,-2.64 1.05,-1.14 2.55,-1.8 1.5,-0.66 3.42,-0.66 1.26,0 2.31,0.24 1.05,0.21 2.04,0.63 l -0.93,3.57 q -0.63,-0.24 -1.38,-0.42 -0.75,-0.18 -1.68,-0.18 -1.98,0 -2.97,1.23 -0.96,1.23 -0.96,3.24 0,2.13 0.9,3.3 0.93,1.17 3.21,1.17 0.81,0 1.74,-0.15 0.93,-0.15 1.71,-0.48 l 0.63,3.66 q -0.78,0.33 -1.95,0.57 -1.17,0.24 -2.58,0.24 -2.16,0 -3.72,-0.63 -1.56,-0.66 -2.58,-1.77 -0.99,-1.11 -1.47,-2.61 -0.45,-1.53 -0.45,-3.3 z" /><path
         id="path26"
         style=""
         d="m -73.300002,1.530002 q 0,-1.71000002 0.54,-3.21 0.57,-1.53 1.62,-2.64 1.05,-1.14 2.55,-1.8 1.5,-0.66 3.42,-0.66 1.26,0 2.31,0.24 1.05,0.21 2.04,0.63 l -0.93,3.57 q -0.63,-0.24 -1.38,-0.42 -0.75,-0.18 -1.68,-0.18 -1.98,0 -2.97,1.23 -0.96,1.22999998 -0.96,3.24 0,2.13 0.9,3.3 0.93,1.17 3.21,1.17 0.81,0 1.74,-0.15 0.93,-0.15 1.71,-0.48 l 0.63,3.66 q -0.78,0.33 -1.95,0.57 -1.17,0.24 -2.58,0.24 -2.16,0 -3.72,-0.63 -1.56,-0.66 -2.58,-1.77 -0.99,-1.11 -1.47,-2.61 -0.45,-1.53 -0.45,-3.3 z" /><path
         id="path28"
         style=""
         d="m -43.55172,1.500002 q 0,1.86 -0.54,3.42 -0.54,1.53 -1.56,2.64 -1.02,1.08 -2.46,1.68 -1.41,0.6 -3.18,0.6 -1.74,0 -3.18,-0.6 -1.41,-0.6 -2.43,-1.68 -1.02,-1.11 -1.59,-2.64 -0.57,-1.56 -0.57,-3.42 0,-1.86000002 0.57,-3.39 0.6,-1.53 1.62,-2.61 1.05,-1.08 2.46,-1.68 1.44,-0.6 3.12,-0.6 1.71,0 3.12,0.6 1.44,0.6 2.46,1.68 1.02,1.08 1.59,2.61 0.57,1.52999998 0.57,3.39 z m -4.56,0 q 0,-2.07000002 -0.84,-3.24 -0.81,-1.2 -2.34,-1.2 -1.53,0 -2.37,1.2 -0.84,1.16999998 -0.84,3.24 0,2.07 0.84,3.3 0.84,1.2 2.37,1.2 1.53,0 2.34,-1.2 0.84,-1.23 0.84,-3.3 z" /><path
         id="path30"
         style=""
         d="m -40.089064,-5.819998 q 1.14,-0.33 2.94,-0.6 1.8,-0.3 3.78,-0.3 2.01,0 3.33,0.54 1.35,0.51 2.13,1.47 0.78,0.96 1.11,2.28 0.33,1.32 0.33,2.93999998 V 9.420002 h -4.47 v -8.37 q 0,-2.16 -0.57,-3.06 -0.57,-0.9 -2.13,-0.9 -0.48,0 -1.02,0.06 -0.54,0.03 -0.96,0.09 v 12.18 h -4.47 z" /><path
         id="path32"
         style=""
         d="m -17.863752,6.210002 q 1.23,0 1.74,-0.24 0.51,-0.24 0.51,-0.93 0,-0.54 -0.66,-0.93 -0.66,-0.42 -2.01,-0.93 -1.05,-0.39 -1.92,-0.81 -0.84,-0.42 -1.44,-0.99 -0.6,-0.60000002 -0.93,-1.41000002 -0.33,-0.81 -0.33,-1.94999998 0,-2.22 1.65,-3.51 1.65,-1.29 4.53,-1.29 1.44,0 2.76,0.27 1.32,0.24 2.1,0.54 l -0.78,3.48 q -0.78,-0.27 -1.71,-0.48 -0.9,-0.21 -2.04,-0.21 -2.1,0 -2.1,1.17 0,0.27 0.09,0.48 0.09,0.21 0.36,0.42 0.27,0.17999998 0.72,0.41999998 0.48,0.21 1.2,0.48 1.47,0.54 2.43,1.08 0.96,0.51000002 1.5,1.14000002 0.57,0.6 0.78,1.35 0.24,0.75 0.24,1.74 0,2.34 -1.77,3.54 -1.74,1.2 -4.95,1.2 -2.1,0 -3.51,-0.36 -1.38,-0.36 -1.92,-0.6 l 0.75,-3.63 q 1.14,0.45 2.34,0.72 1.2,0.24 2.37,0.24 z" /><path
         id="path34"
         style=""
         d="m 5.6074985,8.880002 q -1.14,0.33 -2.94,0.6 -1.80000003,0.3 -3.78,0.3 -2.01,0 -3.36,-0.54 -1.32,-0.54 -2.1,-1.5 -0.78,-0.99 -1.11,-2.34 -0.33,-1.35 -0.33,-2.97 v -8.79 h 4.47 v 8.25 q 0,2.16 0.57,3.12 0.57,0.96 2.12999997,0.96 0.48,0 1.02,-0.03 0.54,-0.06 0.96000003,-0.12 v -12.18 h 4.47 z" /><path
         id="path36"
         style=""
         d="m 16.132811,9.720002 q -1.95,-0.03 -3.18,-0.42 -1.2,-0.39 -1.92,-1.08 -0.69,-0.72 -0.96,-1.71 -0.24,-1.02 -0.24,-2.28 v -17.37 l 4.47,-0.72 v 17.19 q 0,0.6 0.09,1.08 0.09,0.48 0.33,0.81 0.27,0.33 0.75,0.54 0.48,0.21 1.29,0.27 z" /><path
         id="path38"
         style=""
         d="m 19.174998,-10.289998 4.47,-0.72 v 4.65 h 5.37 v 3.72 h -5.37 v 5.55 q 0,1.41 0.48,2.25 0.51,0.84 2.01,0.84 0.72,0 1.47,-0.12 0.78,-0.15 1.41,-0.39 l 0.63,3.48 q -0.81,0.33 -1.8,0.57 -0.99,0.24 -2.43,0.24 -1.83,0 -3.03,-0.48 -1.2,-0.51 -1.92,-1.38 -0.72,-0.9 -1.02,-2.16 -0.27,-1.26 -0.27,-2.79 z" /><path
         id="path40"
         style=""
         d="m 37.09578,9.420002 h -4.47 v -15.78 h 4.47 z m 0.42,-20.34 q 0,1.23 -0.81,1.95 -0.78,0.69 -1.86,0.69 -1.08,0 -1.89,-0.69 -0.78,-0.72 -0.78,-1.95 0,-1.23 0.78,-1.92 0.81,-0.72 1.89,-0.72 1.08,0 1.86,0.72 0.81,0.69 0.81,1.92 z" /><path
         id="path42"
         style=""
         d="m 41.297655,-5.819998 q 1.14,-0.33 2.94,-0.6 1.8,-0.3 3.78,-0.3 2.01,0 3.33,0.54 1.35,0.51 2.13,1.47 0.78,0.96 1.11,2.28 0.33,1.32 0.33,2.93999998 V 9.420002 h -4.47 v -8.37 q 0,-2.16 -0.57,-3.06 -0.57,-0.9 -2.13,-0.9 -0.48,0 -1.02,0.06 -0.54,0.03 -0.96,0.09 v 12.18 h -4.47 z" /><path
         id="path44"
         style=""
         d="m 62.802967,1.020002 q 0,3.75 3.03,3.75 0.69,0 1.29,-0.18 0.6,-0.18 1.02,-0.42 v -7.14 q -0.33,-0.06 -0.78,-0.09 -0.45,-0.06 -1.05,-0.06 -1.77,0 -2.64,1.17 -0.87,1.16999998 -0.87,2.97 z m 9.81,6.42 q 0,3.87 -1.98,5.73 -1.95,1.89 -6.06,1.89 -1.44,0 -2.88,-0.27 -1.44,-0.24 -2.67,-0.66 l 0.78,-3.75 q 1.05,0.42 2.19,0.66 1.17,0.24 2.64,0.24 1.92,0 2.7,-0.84 0.81,-0.84 0.81,-2.16 v -0.57 q -0.72,0.33 -1.5,0.51 -0.75,0.15 -1.65,0.15 -3.27,0 -5.01,-1.92 -1.74,-1.95 -1.74,-5.43 0,-1.74000002 0.54,-3.15 0.54,-1.44 1.56,-2.46 1.05,-1.02 2.55,-1.56 1.5,-0.57 3.39,-0.57 0.81,0 1.65,0.09 0.87,0.06 1.71,0.18 0.84,0.12 1.59,0.3 0.78,0.15 1.38,0.33 z" /><path
         id="path46"
         style=""
         d="m -66.520002,40.200004 q 0.66,0 1.26,-0.03 0.6,-0.03 0.96,-0.09 v -3.39 q -0.27,-0.06 -0.81,-0.12 -0.54,-0.06 -0.99,-0.06 -0.63,0 -1.2,0.09 -0.54,0.06 -0.96,0.27 -0.42,0.21 -0.66,0.57 -0.24,0.36 -0.24,0.9 0,1.05 0.69,1.47 0.72,0.39 1.95,0.39 z m -0.36,-13.08 q 1.98,0 3.3,0.45 1.32,0.45 2.1,1.29 0.81,0.84 1.14,2.04 0.33,1.2 0.33,2.67 v 9.3 q -0.96,0.21 -2.67,0.48 -1.71,0.3 -4.14,0.3 -1.53,0 -2.79,-0.27 -1.23,-0.27 -2.13,-0.87 -0.9,-0.63 -1.38,-1.62 -0.48,-0.99 -0.48,-2.43 0,-1.38 0.54,-2.34 0.57,-0.96 1.5,-1.53 0.93,-0.57 2.13,-0.81 1.2,-0.27 2.49,-0.27 0.87,0 1.53,0.09 0.69,0.06 1.11,0.18 v -0.42 q 0,-1.14 -0.69,-1.83 -0.69,-0.69 -2.4,-0.69 -1.14,0 -2.25,0.18 -1.11,0.15 -1.92,0.45 l -0.57,-3.6 q 0.39,-0.12 0.96,-0.24 0.6,-0.15 1.29,-0.24 0.69,-0.12 1.44,-0.18 0.78,-0.09 1.56,-0.09 z" /><path
         id="path48"
         style=""
         d="m -51.43797,40.110004 q 1.23,0 1.74,-0.24 0.51,-0.24 0.51,-0.93 0,-0.54 -0.66,-0.93 -0.66,-0.42 -2.01,-0.93 -1.05,-0.39 -1.92,-0.81 -0.84,-0.42 -1.44,-0.99 -0.6,-0.6 -0.93,-1.41 -0.33,-0.81 -0.33,-1.95 0,-2.22 1.65,-3.51 1.65,-1.29 4.53,-1.29 1.44,0 2.76,0.27 1.32,0.24 2.1,0.54 l -0.78,3.48 q -0.78,-0.27 -1.71,-0.48 -0.9,-0.21 -2.04,-0.21 -2.1,0 -2.1,1.17 0,0.27 0.09,0.48 0.09,0.21 0.36,0.42 0.27,0.18 0.72,0.42 0.48,0.21 1.2,0.48 1.47,0.54 2.43,1.08 0.96,0.51 1.5,1.14 0.57,0.6 0.78,1.35 0.24,0.75 0.24,1.74 0,2.34 -1.77,3.54 -1.74,1.2 -4.95,1.2 -2.1,0 -3.51,-0.36 -1.38,-0.36 -1.92,-0.6 l 0.75,-3.63 q 1.14,0.45 2.34,0.72 1.2,0.24 2.37,0.24 z" /><path
         id="path50"
         style=""
         d="m -36.96672,43.320004 h -4.47 v -15.78 h 4.47 z m 0.42,-20.34 q 0,1.23 -0.81,1.95 -0.78,0.69 -1.86,0.69 -1.08,0 -1.89,-0.69 -0.78,-0.72 -0.78,-1.95 0,-1.23 0.78,-1.92 0.81,-0.72 1.89,-0.72 1.08,0 1.86,0.72 0.81,0.69 0.81,1.92 z" /><path
         id="path52"
         style=""
         d="m -26.734845,40.200004 q 0.66,0 1.26,-0.03 0.6,-0.03 0.96,-0.09 v -3.39 q -0.27,-0.06 -0.81,-0.12 -0.54,-0.06 -0.99,-0.06 -0.63,0 -1.2,0.09 -0.54,0.06 -0.96,0.27 -0.42,0.21 -0.66,0.57 -0.24,0.36 -0.24,0.9 0,1.05 0.69,1.47 0.72,0.39 1.95,0.39 z m -0.36,-13.08 q 1.98,0 3.3,0.45 1.32,0.45 2.1,1.29 0.81,0.84 1.14,2.04 0.33,1.2 0.33,2.67 v 9.3 q -0.96,0.21 -2.67,0.48 -1.71,0.3 -4.14,0.3 -1.53,0 -2.79,-0.27 -1.23,-0.27 -2.13,-0.87 -0.9,-0.63 -1.38,-1.62 -0.48,-0.99 -0.48,-2.43 0,-1.38 0.54,-2.34 0.57,-0.96 1.5,-1.53 0.93,-0.57 2.13,-0.81 1.2,-0.27 2.49,-0.27 0.87,0 1.53,0.09 0.69,0.06 1.11,0.18 v -0.42 q 0,-1.14 -0.69,-1.83 -0.69,-0.69 -2.4,-0.69 -1.14,0 -2.25,0.18 -1.11,0.15 -1.92,0.45 l -0.57,-3.6 q 0.39,-0.12 0.96,-0.24 0.6,-0.15 1.29,-0.24 0.69,-0.12 1.44,-0.18 0.78,-0.09 1.56,-0.09 z" /></g></g></svg>